<svg width="181" height="145" viewBox="0 0 181 145" fill="none" xmlns="http://www.w3.org/2000/svg">
<ellipse cx="60" cy="100.5" rx="27" ry="26.5" fill="#FCC521"/>
<ellipse cx="120" cy="100.5" rx="27" ry="26.5" fill="#FCC521"/>
<path d="M133.5 16C109 32.0308 94.6666 57.5 91.4999 70C81.4999 76.6667 72.8999 89 118.5 85C164.1 81 175.833 39.3334 176 19C174.4 -4.59997 147 7.1667 133.5 16Z" fill="#FCC521" stroke="#2D2E3D" stroke-width="10"/>
<path d="M47.5001 15.8741C72 31.9048 86.3334 57.3741 89.5001 69.8741C99.5001 76.5407 108.1 88.874 62.5001 84.874C16.9001 80.874 5.16677 39.2074 5.00011 18.8741C6.60011 -4.72594 34.0001 7.04072 47.5001 15.8741Z" fill="#FCC521" stroke="#2D2E3D" stroke-width="10"/>
<path d="M90.476 137.672C75.5427 125.457 67.8094 110.582 66.0594 104.672C62.4594 90.6718 68.8927 80.5052 72.5594 77.1718C87.7594 62.3718 103.226 71.0052 109.059 77.1718C118.259 86.3718 116.893 99.3385 115.059 104.672C111.326 118.463 97.2816 132.418 90.476 137.672Z" fill="#FDF2C7" stroke="#2D2E3D" stroke-width="10"/>
<path d="M91 106C89 103.5 84.7653 98.9028 84.2886 97.6374C83.3079 94.64 85.0604 92.4633 86.0593 91.7496C90.1999 88.5809 94.4132 90.4293 96.0022 91.7496C98.5084 93.7193 98.1361 96.4955 97.6367 97.6374C97 99 93 103.5 91 106Z" fill="#D9D9D9" stroke="#2D2E3D" stroke-width="10"/>
<circle cx="91" cy="96" r="5" fill="#FCC521"/>
<path d="M41.9998 80.5C38.4998 82.8333 31.8998 91.2 33.4998 106C35.0998 120.8 50.4998 126.5 57.9998 127.5C61.9998 128.167 71.5998 127.1 75.9998 123.5" stroke="#2D2E3D" stroke-width="10"/>
<path d="M138 80C141.5 82.3333 148.1 90.7 146.5 105.5C144.9 120.3 129.5 126 122 127C118 127.667 108.4 126.6 104 123" stroke="#2D2E3D" stroke-width="10"/>
</svg>
